# xmcd CD database file
#
# Track frame offsets:
#	150
#	16317
#	33625
#	48792
#	64625
#	80650
#	95672
#	112410
#	128505
#	144292
#	158467
#	173790
#	189320
#	204510
#	220477
#	237415
#	251640
#	266735
#	288072
#	308560
#
# Disc length: 4370 seconds
#
# Revision: 0
# Processed by: cddbd v1.5.2PL0 Copyright (c) Steve Scherf et al.
# Submitted via: CDex 1.70beta3
#
DISCID=17111014
DTITLE=avex DANCE - avex DANCE VOL.3
DYEAR=1900
DGENRE=avex
TTITLE0=STAYIN' ALIVE
TTITLE1=MACARENA
TTITLE2=OUR RADIO ROCKS
TTITLE3=BOOM BOOM BOOM
TTITLE4=ARE YOU READY FOR SOME MORE?
TTITLE5=ABC and D
TTITLE6=TORA TORA TORA
TTITLE7=WHOOMPH! (THERE IT IS)
TTITLE8=GOOD TIME
TTITLE9=BABY BREAK IT UP!
TTITLE10=U and ME
TTITLE11=I MUST BE FREE
TTITLE12=BALLOONY
TTITLE13=IT'S ON YOU (SCAN ME)
TTITLE14=Firestarter
TTITLE15=ANASTHASIA
TTITLE16=ANYTHING 4 U
TTITLE17=Overnight Sensation ～時代はあなたに委ねてる～
TTITLE18=Chase the Chance
TTITLE19=Joy to the love (globe)
EXTD=
EXTT0=
EXTT1=
EXTT2=
EXTT3=
EXTT4=
EXTT5=
EXTT6=
EXTT7=
EXTT8=
EXTT9=
EXTT10=
EXTT11=
EXTT12=
EXTT13=
EXTT14=
EXTT15=
EXTT16=
EXTT17=
EXTT18=
EXTT19=
PLAYORDER=
